<svg xmlns="http://www.w3.org/2000/svg" xmlns:xlink="http://www.w3.org/1999/xlink" viewBox="0 0 388.01 268"><defs><style>.cls-1{fill:url(#未命名的渐变_29);}.cls-2{fill:#2775ca;}.cls-3{fill:#fff;}.cls-4{fill:#1ba27a;}</style><linearGradient id="未命名的渐变_29" y1="134" x2="388.01" y2="134" gradientUnits="userSpaceOnUse"><stop offset="0" stop-color="#db3fff"/><stop offset="0.98" stop-color="#00d4a1"/></linearGradient></defs><g id="图层_2" data-name="图层 2"><g id="图层_1-2" data-name="图层 1"><path class="cls-1" d="M254,16a118,118,0,1,1-60,219.62,118,118,0,1,1,0-203.24A117.82,117.82,0,0,1,254,16m0-16a134.1,134.1,0,0,0-60,14.17A134.06,134.06,0,0,0,134,0C60.11,0,0,60.11,0,134S60.11,268,134,268a134.06,134.06,0,0,0,60-14.17A134.13,134.13,0,0,0,254,268c73.89,0,134-60.11,134-134S327.9,0,254,0Z"/><path class="cls-2" d="M134,244A110,110,0,1,0,24,134,110,110,0,0,0,134,244Z"/><path class="cls-3" d="M114.4,211a3.29,3.29,0,0,1-4.49,3.28,82.49,82.49,0,0,1,0-157.11c2.55-.73,4.49.73,4.49,3.28V66.9a5,5,0,0,1-3,4.37,68.63,68.63,0,0,0,.13,128.94,5.13,5.13,0,0,1,3,4.37V211Z"/><path class="cls-3" d="M141.13,185.6a3.39,3.39,0,0,1-3.4,3.4h-6.8a3.39,3.39,0,0,1-3.39-3.4V174.67c-15.06-2.06-22.34-10.44-24.29-21.85a3.24,3.24,0,0,1,3.16-3.77h7.77a3.61,3.61,0,0,1,3.4,2.8c1.46,6.8,5.34,12,17.48,12,8.87,0,15.18-5,15.18-12.39s-3.76-10.2-16.76-12.38c-19.3-2.43-28.41-8.26-28.41-23.43,0-11.66,8.75-20.64,22.47-22.59V82.4a3.39,3.39,0,0,1,3.39-3.4h6.8a3.39,3.39,0,0,1,3.4,3.4V93.33c11.05,1.94,18.09,8.25,20.4,18.69a3.21,3.21,0,0,1-3.16,3.89h-7.28a3.5,3.5,0,0,1-3.28-2.55c-1.94-6.68-6.68-9.47-14.93-9.47-9.11,0-13.84,4.37-13.84,10.56,0,6.56,2.67,9.84,16.63,11.78,18.94,2.55,28.65,8,28.65,24,0,12.26-9.1,22.1-23.19,24.4Z"/><path class="cls-3" d="M158.41,214.46c-2.55.73-4.49-.73-4.49-3.28v-6.43a4.73,4.73,0,0,1,3-4.37,68.65,68.65,0,0,0-.12-129.06,5.12,5.12,0,0,1-3-4.37V60.51a3.25,3.25,0,0,1,4.49-3.28,82.6,82.6,0,0,1,.12,157.23Z"/><path class="cls-4" d="M254,134H144A110,110,0,1,0,254,24,110,110,0,0,0,144,134Z"/><path class="cls-3" d="M306.09,75.21H201.93v25.2h39.6v37H266.6v-37h39.49Z"/><path class="cls-3" d="M320.72,131.65c0-8.25-29.69-14.85-66.43-14.85s-66.43,6.71-66.43,14.85c0,7.26,23.09,13.32,53.69,14.63v53h25.07v-53c30.79-1.31,54.1-7.37,54.1-14.63Zm-66.43,9.69c-32.68,0-59.19-5.18-59.19-11.56s26.51-11.56,59.19-11.56,59.19,5.18,59.19,11.56-26.54,11.56-59.19,11.56Z"/></g></g></svg>